<svg class="animated" id="freepik_stories-basketball-court" xmlns="http://www.w3.org/2000/svg" viewBox="0 0 750 500" version="1.1" xmlns:xlink="http://www.w3.org/1999/xlink" xmlns:svgjs="http://svgjs.com/svgjs"><style>svg#freepik_stories-basketball-court:not(.animated) .animable {opacity: 0;}svg#freepik_stories-basketball-court.animated #freepik--Grandstands--inject-77 {animation: 1.5s Infinite  linear shake;animation-delay: 0s;}svg#freepik_stories-basketball-court.animated #freepik--Score_board--inject-77 {animation: 1.5s Infinite  linear wind;animation-delay: 0s;}svg#freepik_stories-basketball-court.animated #freepik--Court--inject-77 {animation: 1.5s Infinite  linear floating;animation-delay: 0s;}svg#freepik_stories-basketball-court.animated #freepik--Basketball_hoops--inject-77 {animation: 1.5s Infinite  linear floating;animation-delay: 0s;}            @keyframes shake {                10%, 90% {                    transform: translate3d(-1px, 0, 0);                  }                  20%, 80% {                    transform: translate3d(2px, 0, 0);                  }                  30%, 50%, 70% {                    transform: translate3d(-4px, 0, 0);                  }                  40%, 60% {                    transform: translate3d(4px, 0, 0);                  }            }                    @keyframes wind {                0% {                    transform: rotate( 0deg );                }                25% {                    transform: rotate( 1deg );                }                75% {                    transform: rotate( -1deg );                }            }                    @keyframes floating {                0% {                    opacity: 1;                    transform: translateY(0px);                }                50% {                    transform: translateY(-10px);                }                100% {                    opacity: 1;                    transform: translateY(0px);                }            }        .animator-hidden { display: none; }</style><g id="freepik--Windows--inject-77" class="animable animator-active animator-hidden" style="transform-origin: 375.793px 76.6595px;"><g id="elxthrkoqs94b" class="animable" style="transform-origin: 375.793px 76.6595px;"><g id="elqt2xsegcl4" class="animable" style="transform-origin: 245.695px 76.6595px;"><rect x="164.4826" y="59.7073" width="78.0586" height="33.9043" style="fill: none; stroke: rgb(38, 50, 56); stroke-miterlimit: 10; transform-origin: 203.512px 76.6594px;" id="el14dfo6nobakr" class="animable"></rect><rect x="248.8489" y="59.7073" width="78.0586" height="33.9043" style="fill: none; stroke: rgb(38, 50, 56); stroke-miterlimit: 10; transform-origin: 287.878px 76.6594px;" id="el190hc3pmt3y" class="animable"></rect></g><g id="elv5ord84a4lc" class="animable" style="transform-origin: 505.89px 76.6595px;"><rect x="424.67789" y="59.7073" width="78.0586" height="33.9043" style="fill: none; stroke: rgb(38, 50, 56); stroke-miterlimit: 10; transform-origin: 463.707px 76.6594px;" id="el3jhl42r400y" class="animable"></rect><rect x="509.04429" y="59.7073" width="78.0586" height="33.9043" style="fill: none; stroke: rgb(38, 50, 56); stroke-miterlimit: 10; transform-origin: 548.074px 76.6594px;" id="elakxlj6wntc7" class="animable"></rect></g></g></g><g id="freepik--Grandstands--inject-77" class="animable" style="transform-origin: 375.791px 174.413px;"><g id="ell4yrofiosi" class="animable" style="transform-origin: 375.791px 174.413px;"><g id="elv2q02hvsly" class="animable" style="transform-origin: 375.74px 174.413px;"><polygon points="592.56529 115.1848 158.9149 115.1848 130.21667 239.3422 621.26349 239.3422 592.56529 115.1848" style="fill: rgb(255, 255, 255); stroke: rgb(38, 50, 56); stroke-miterlimit: 10; transform-origin: 375.74px 177.263px;" id="el39bnyvs3sw" class="animable"></polygon><g id="elr3cz4cu9gb" class="animable" style="transform-origin: 375.74px 165.072px;"><polygon points="592.56529 112.1121 158.9149 112.1121 155.651 126.6733 595.82919 126.6733 592.56529 112.1121" style="fill: rgb(255, 255, 255); stroke: rgb(38, 50, 56); stroke-miterlimit: 10; transform-origin: 375.74px 119.393px;" id="elzpxdpime9gb" class="animable"></polygon><polygon points="595.63879 125.824 155.8413 125.824 152.4835 140.804 598.99669 140.804 595.63879 125.824" style="fill: rgb(255, 255, 255); stroke: rgb(38, 50, 56); stroke-miterlimit: 10; transform-origin: 375.74px 133.314px;" id="el6w2tu34e7ei" class="animable"></polygon><polygon points="598.80079 139.9301 152.6794 139.9301 149.2236 155.3474 602.25659 155.3474 598.80079 139.9301" style="fill: rgb(255, 255, 255); stroke: rgb(38, 50, 56); stroke-miterlimit: 10; transform-origin: 375.74px 147.639px;" id="el2js74uycck9" class="animable"></polygon><polygon points="602.05489 154.4478 149.4252 154.4478 145.867 170.3218 605.61319 170.3218 602.05489 154.4478" style="fill: rgb(255, 255, 255); stroke: rgb(38, 50, 56); stroke-miterlimit: 10; transform-origin: 375.74px 162.385px;" id="el6j9s43eov76" class="animable"></polygon><polygon points="605.40549 169.3954 146.0747 169.3954 142.4095 185.7467 609.07069 185.7467 605.40549 169.3954" style="fill: rgb(255, 255, 255); stroke: rgb(38, 50, 56); stroke-miterlimit: 10; transform-origin: 375.74px 177.571px;" id="el44x2pdatq62" class="animable"></polygon><polygon points="608.85669 184.7922 142.6234 184.7922 138.8464 201.6427 612.63379 201.6427 608.85669 184.7922" style="fill: rgb(255, 255, 255); stroke: rgb(38, 50, 56); stroke-miterlimit: 10; transform-origin: 375.74px 193.217px;" id="elr0xv5xyp89" class="animable"></polygon><polygon points="612.41329 200.6588 139.0669 200.6588 135.1727 218.0317 616.30739 218.0317 612.41329 200.6588" style="fill: rgb(255, 255, 255); stroke: rgb(38, 50, 56); stroke-miterlimit: 10; transform-origin: 375.74px 209.345px;" id="elguvnmjekp77" class="animable"></polygon></g><g id="elrj8wtpm8nlb" class="animable" style="transform-origin: 376.167px 163.758px;"><g id="el3kglb6bjsti" class="animable" style="transform-origin: 205.042px 163.758px;"><rect x="157.0484" y="109.4844" width="116.7557" height="16.2603" style="fill: rgb(176, 190, 197); stroke: rgb(38, 50, 56); stroke-linecap: round; stroke-linejoin: round; transform-origin: 215.426px 117.615px;" id="elcqb3tm47gfv" class="animable"></rect><rect x="154.0092" y="123.2348" width="118.0221" height="16.7445" style="fill: rgb(176, 190, 197); stroke: rgb(38, 50, 56); stroke-linecap: round; stroke-linejoin: round; transform-origin: 213.02px 131.607px;" id="el7pt3665y7sc" class="animable"></rect><rect x="150.7167" y="137.3941" width="120.0483" height="17.2507" style="fill: rgb(176, 190, 197); stroke: rgb(38, 50, 56); stroke-linecap: round; stroke-linejoin: round; transform-origin: 210.741px 146.019px;" id="elyivf294qv5" class="animable"></rect><rect x="147.171" y="151.9808" width="121.8211" height="17.7802" style="fill: rgb(176, 190, 197); stroke: rgb(38, 50, 56); stroke-linecap: round; stroke-linejoin: round; transform-origin: 208.082px 160.871px;" id="elrp9jc3yz6n8" class="animable"></rect><rect x="143.8785" y="167.0146" width="123.594" height="18.3344" style="fill: rgb(176, 190, 197); stroke: rgb(38, 50, 56); stroke-linecap: round; stroke-linejoin: round; transform-origin: 205.675px 176.182px;" id="el90lrrt9ihp" class="animable"></rect><rect x="140.0795" y="182.5164" width="125.6201" height="18.9149" style="fill: rgb(176, 190, 197); stroke: rgb(38, 50, 56); stroke-linecap: round; stroke-linejoin: round; transform-origin: 202.89px 191.974px;" id="elibm86pzur6a" class="animable"></rect><rect x="136.2805" y="198.5083" width="127.393" height="19.5234" style="fill: rgb(176, 190, 197); stroke: rgb(38, 50, 56); stroke-linecap: round; stroke-linejoin: round; transform-origin: 199.977px 208.27px;" id="elvjiog3254jo" class="animable"></rect></g><g id="elz1h5ggggap9" class="animable" style="transform-origin: 547.292px 163.758px;"><rect x="478.53059" y="109.4844" width="116.7558" height="16.2603" style="fill: rgb(176, 190, 197); stroke: rgb(38, 50, 56); stroke-linecap: round; stroke-linejoin: round; transform-origin: 536.908px 117.615px;" id="elspsjw3av8qc" class="animable"></rect><rect x="480.30349" y="123.2348" width="118.022" height="16.7445" style="fill: rgb(176, 190, 197); stroke: rgb(38, 50, 56); stroke-linecap: round; stroke-linejoin: round; transform-origin: 539.314px 131.607px;" id="eli0iub15yxtd" class="animable"></rect><rect x="481.56979" y="137.3941" width="120.04821" height="17.2507" style="fill: rgb(176, 190, 197); stroke: rgb(38, 50, 56); stroke-linecap: round; stroke-linejoin: round; transform-origin: 541.594px 146.019px;" id="el7hzjqr8ekmr" class="animable"></rect><rect x="483.34259" y="151.9808" width="121.8211" height="17.7802" style="fill: rgb(176, 190, 197); stroke: rgb(38, 50, 56); stroke-linecap: round; stroke-linejoin: round; transform-origin: 544.253px 160.871px;" id="elywagtdzdaa" class="animable"></rect><rect x="484.86229" y="167.0146" width="123.5939" height="18.3344" style="fill: rgb(176, 190, 197); stroke: rgb(38, 50, 56); stroke-linecap: round; stroke-linejoin: round; transform-origin: 546.659px 176.182px;" id="elbo0r2x3il5w" class="animable"></rect><rect x="486.63509" y="182.5164" width="125.6201" height="18.9149" style="fill: rgb(176, 190, 197); stroke: rgb(38, 50, 56); stroke-linecap: round; stroke-linejoin: round; transform-origin: 549.445px 191.974px;" id="elwg4oy5xwym" class="animable"></rect><rect x="488.66119" y="198.5083" width="127.393" height="19.5234" style="fill: rgb(176, 190, 197); stroke: rgb(38, 50, 56); stroke-linecap: round; stroke-linejoin: round; transform-origin: 552.358px 208.27px;" id="elnaxfasb60o" class="animable"></rect></g><g id="elhrs519dayto" class="animable" style="transform-origin: 375.8px 163.758px;"><rect x="316.8253" y="109.4844" width="117.9501" height="16.2603" style="fill: rgb(176, 190, 197); stroke: rgb(38, 50, 56); stroke-linecap: round; stroke-linejoin: round; transform-origin: 375.8px 117.615px;" id="elf3tz2ng87u6" class="animable"></rect><rect x="315.8651" y="123.2348" width="119.8705" height="16.7445" style="fill: rgb(176, 190, 197); stroke: rgb(38, 50, 56); stroke-linecap: round; stroke-linejoin: round; transform-origin: 375.8px 131.607px;" id="elhuoybs24x9s" class="animable"></rect><rect x="314.9048" y="137.3941" width="121.7911" height="17.2507" style="fill: rgb(176, 190, 197); stroke: rgb(38, 50, 56); stroke-linecap: round; stroke-linejoin: round; transform-origin: 375.8px 146.019px;" id="elzqty6l1jq" class="animable"></rect><rect x="313.9446" y="151.9808" width="123.7115" height="17.7802" style="fill: rgb(176, 190, 197); stroke: rgb(38, 50, 56); stroke-linecap: round; stroke-linejoin: round; transform-origin: 375.8px 160.871px;" id="el8yg6a6kt50t" class="animable"></rect><rect x="312.9843" y="167.0146" width="125.472" height="18.3344" style="fill: rgb(176, 190, 197); stroke: rgb(38, 50, 56); stroke-linecap: round; stroke-linejoin: round; transform-origin: 375.72px 176.182px;" id="elu1stgmv9jn7" class="animable"></rect><rect x="311.704" y="182.5164" width="127.87259" height="18.9149" style="fill: rgb(176, 190, 197); stroke: rgb(38, 50, 56); stroke-linecap: round; stroke-linejoin: round; transform-origin: 375.64px 191.974px;" id="el6tma7g3vpf" class="animable"></rect><rect x="310.9038" y="198.5082" width="129.7931" height="19.5235" style="fill: rgb(176, 190, 197); stroke: rgb(38, 50, 56); stroke-linecap: round; stroke-linejoin: round; transform-origin: 375.8px 208.27px;" id="el6pcwrbogtlq" class="animable"></rect></g></g></g><rect x="130.13872" y="209.4325" width="491.30467" height="29.9097" style="fill: rgb(186, 186, 186); stroke: rgb(38, 50, 56); stroke-linecap: round; stroke-linejoin: round; transform-origin: 375.791px 224.387px;" id="elmlzbywr66zd" class="animable"></rect></g></g><g id="freepik--Score_board--inject-77" class="animable" style="transform-origin: 370.865px 90.4956px;"><g id="eljpmdh5inc9" class="animable" style="transform-origin: 370.865px 90.4956px;"><rect x="272.1285" y="31.7573" width="197.4731" height="117.4767" rx="3.992" ry="3.992" style="fill: rgb(38, 50, 56); transform-origin: 370.865px 90.4956px;" id="ele1fxojjy4du" class="animable"></rect><rect x="344.72819" y="45.3193" width="52.2737" height="25.1852" style="fill: rgb(38, 50, 56); stroke: rgb(255, 255, 255); stroke-miterlimit: 10; transform-origin: 370.865px 57.9119px;" id="elap942a9seta" class="animable"></rect><rect x="361.05969" y="84.4631" width="19.4908" height="18.6902" style="fill: rgb(38, 50, 56); stroke: rgb(255, 255, 255); stroke-miterlimit: 10; transform-origin: 370.805px 93.8082px;" id="elcuxhrpihrv7" class="animable"></rect><rect x="337.60769" y="106.1375" width="19.4908" height="18.6902" style="fill: rgb(38, 50, 56); stroke: rgb(255, 255, 255); stroke-miterlimit: 10; transform-origin: 347.353px 115.483px;" id="elavae87vrmut" class="animable"></rect><rect x="384.16739" y="106.1375" width="19.4909" height="18.6902" style="fill: rgb(38, 50, 56); stroke: rgb(255, 255, 255); stroke-miterlimit: 10; transform-origin: 393.913px 115.483px;" id="ellvmc74kqgqq" class="animable"></rect><g id="el3pokyugdimb" class="animable" style="transform-origin: 305.657px 64.259px;"><path d="M283.0142,72.7052v-16.9348h3.073v7.0873h3.4501v-7.0873h3.0941v16.9348h-3.0941v-7.6517h-3.4501v7.6517h-3.073Z" style="fill: rgb(186, 186, 186); transform-origin: 287.823px 64.2378px;" id="eljgfh1p91jqg" class="animable"></path><path d="M299.8233,72.9354c-1.199,0-2.1534-.2234-2.8639-.6695-.7112-.4454-1.2202-1.087-1.5262-1.9232-.3068-.8362-.4598-1.8261-.4598-2.9691v-6.3345c0-1.143,.153-2.122,.4598-2.9377,.306-.8151,.815-1.4388,1.5262-1.8713,.7105-.4317,1.6649-.6476,2.8639-.6476,1.2263,0,2.1917,.2159,2.896,.6476,.7037,.4325,1.2127,1.0562,1.5263,1.8713,.3136,.8157,.47,1.7947,.47,2.9377v6.3557c0,1.1293-.1564,2.1083-.47,2.9377-.3136,.8294-.8226,1.4702-1.5263,1.9231-.7043,.453-1.6697,.6798-2.896,.6798Zm0-2.2791c.5158,0,.8957-.1114,1.1396-.3348,.2439-.2227,.4078-.5294,.4912-.9195,.084-.3901,.1257-.8157,.1257-1.2755v-7.7986c0-.4735-.0417-.8984-.1257-1.2748-.0834-.3765-.2473-.6723-.4912-.8889-.2439-.2158-.6238-.3238-1.1396-.3238-.4878,0-.8567,.108-1.1081,.3238-.2507,.2166-.4181,.5124-.5015,.8889-.084,.3764-.1257,.8013-.1257,1.2748v7.7986c0,.4598,.0383,.8854,.1155,1.2755,.0758,.3901,.2405,.6968,.4912,.9195,.2507,.2234,.6272,.3348,1.1286,.3348Z" style="fill: rgb(186, 186, 186); transform-origin: 299.844px 64.259px;" id="el53x0s0bulib" class="animable"></path><path d="M306.9531,72.7052l.2924-16.9348h3.1986l2.4042,11.7289,2.5093-11.7289h3.0942l.3136,16.9348h-2.2997l-.2514-11.7706-2.4041,11.7706h-1.8603l-2.4465-11.8123-.2302,11.8123h-2.3201Z" style="fill: rgb(186, 186, 186); transform-origin: 312.859px 64.2378px;" id="el4fajzcpvell" class="animable"></path><path d="M321.149,72.7052v-16.9348h7.10849v2.1745h-4.0144v4.8712h3.157v2.1534h-3.157v5.6035h4.0561v2.1322h-7.15019Z" style="fill: rgb(186, 186, 186); transform-origin: 324.724px 64.2378px;" id="elf9owyvxsg2" class="animable"></path></g><g id="ely9689iod4b" class="animable" style="transform-origin: 347.53px 132.14px;"><path d="M337.77639,135.4709v-6.6788h2.7457v.841h-1.5255v1.9464h1.24541v.8492h-1.24541v3.0422h-1.2202Z" style="fill: rgb(186, 186, 186); transform-origin: 339.149px 132.132px;" id="ela1szfh6de7t" class="animable"></path><path d="M342.99519,135.5618c-.4727,0-.84919-.0882-1.1293-.2637-.2801-.1763-.48089-.4291-.6018-.7591-.121-.3293-.1818-.72-.1818-1.1703v-2.4984c0-.4509,.0608-.8369,.1818-1.1587,.12091-.3217,.3217-.5677,.6018-.7378,.28011-.1701,.6566-.2555,1.1293-.2555,.4837,0,.8643,.0854,1.1423,.2555,.2774,.1701,.4783,.4161,.6019,.7378,.1237,.3218,.1852,.7078,.1852,1.1587v2.5066c0,.4448-.0615,.8315-.1852,1.158-.1236,.3273-.3245,.5801-.6019,.7591-.278,.1783-.6586,.2678-1.1423,.2678Zm0-.8991c.2036,0,.3533-.0437,.4496-.1319,.0963-.0874,.1605-.2083,.194-.3627,.0328-.1537,.04921-.3218,.04921-.5029v-3.0757c0-.1865-.01641-.3545-.04921-.5028-.0335-.1482-.0977-.2651-.194-.3505-.0963-.0847-.246-.1277-.4496-.1277-.1919,0-.3381,.043-.4365,.1277-.0991,.0854-.1653,.2023-.1981,.3505-.0328,.1483-.0492,.3163-.0492,.5028v3.0757c0,.1811,.015,.3492,.0451,.5029,.03,.1544,.0949,.2753,.194,.3627,.0984,.0882,.2473,.1319,.4447,.1319Z" style="fill: rgb(186, 186, 186); transform-origin: 343.003px 132.14px;" id="el6qkd33r5jal" class="animable"></path><path d="M347.65389,135.5618c-.4946,0-.8793-.0909-1.15389-.2726-.27531-.1811-.46461-.4393-.56911-.7748-.1045-.3354-.1565-.7364-.1565-1.2037v-4.5186h1.1874v4.6586c0,.2091,.0137,.4058,.041,.5896,.0273,.1845,.09221,.3327,.194,.4455,.10121,.1127,.25421,.1687,.4571,.1687,.2145,0,.3696-.056,.4659-.1687,.0964-.1128,.1599-.261,.19-.4455,.03-.1838,.045-.3805,.045-.5896v-4.6586h1.17921v4.5186c0,.4673-.05191,.8683-.15641,1.2037-.10459,.3355-.2931,.5937-.565,.7748-.2719,.1817-.65859,.2726-1.1587,.2726Z" style="fill: rgb(186, 186, 186); transform-origin: 347.654px 132.177px;" id="elr1k0ltv6c1m" class="animable"></path><path d="M350.48979,135.4709v-6.6788h1.22021v5.8378h1.61639v.841h-2.8366Z" style="fill: rgb(186, 186, 186); transform-origin: 351.908px 132.132px;" id="elcw1uuw1brc9" class="animable"></path><path d="M355.61029,135.5618c-.401,0-.7365-.0786-1.0057-.235-.2691-.1572-.4727-.386-.61-.6887-.1374-.302-.21459-.6729-.231-1.1129l1.04741-.2063c.01089,.2582,.04229,.4864,.09419,.6845,.0526,.1975,.1319,.3505,.2392,.4578,.1072,.1065,.24861,.1605,.4249,.1605,.1974,0,.3382-.0587,.4202-.1776,.0826-.1175,.1236-.2678,.1236-.4489,0-.2917-.0656-.5308-.1974-.7173-.1319-.1872-.3081-.3737-.5281-.5609l-.841-.742c-.2364-.2036-.4243-.4304-.5643-.6804-.1408-.2501-.2105-.5589-.2105-.9271,0-.5281,.1537-.9346,.4619-1.2209,.3074-.2855,.7282-.4283,1.2611-.4283,.3136,0,.5746,.0478,.7836,.1441,.2084,.0964,.3751,.2296,.4988,.3997,.1236,.1708,.2159,.3641,.276,.5814,.06081,.2173,.099,.4468,.1154,.6886l-1.0384,.1811c-.0116-.2084-.0349-.3956-.0704-.5602-.0362-.1654-.099-.2945-.1899-.3874-.0902-.0936-.2241-.1407-.3997-.1407-.181,0-.3204,.0594-.416,.1776-.0964,.1182-.1449,.2651-.1449,.4407,0,.2261,.0472,.4112,.1408,.5568,.09291,.1455,.2275,.2958,.4037,.4495l.8328,.7337c.2747,.231,.5097,.5015,.7051,.8123,.1947,.3102,.2924,.686,.2924,1.1253,0,.319-.0697,.6018-.2104,.8492-.1401,.2473-.3348,.4413-.5855,.5813-.2501,.1401-.5425,.2105-.8779,.2105Z" style="fill: rgb(186, 186, 186); transform-origin: 355.524px 132.14px;" id="elq5jybmwypql" class="animable"></path></g><g id="elmvkmageqdkg" class="animable" style="transform-origin: 394.089px 132.14px;"><path d="M384.33559,135.4709v-6.6788h2.74641v.841h-1.52631v1.9464h1.2448v.8492h-1.2448v3.0422h-1.2201Z" style="fill: rgb(186, 186, 186); transform-origin: 385.709px 132.132px;" id="el5jwbfydczit" class="animable"></path><path d="M389.55509,135.5618c-.4728,0-.8499-.0882-1.13-.2637-.28009-.1763-.481-.4291-.6026-.7591-.1202-.3293-.1803-.72-.1803-1.1703v-2.4984c0-.4509,.0601-.8369,.1803-1.1587,.1216-.3217,.32251-.5677,.6026-.7378,.2801-.1701,.6572-.2555,1.13-.2555,.4837,0,.8635,.0854,1.14091,.2555,.27739,.1701,.47819,.4161,.60259,.7378,.123,.3218,.1858,.7078,.1858,1.1587v2.5066c0,.4448-.0628,.8315-.1858,1.158-.1244,.3273-.3252,.5801-.60259,.7591-.27741,.1783-.65721,.2678-1.14091,.2678Zm0-.8991c.2022,0,.3525-.0437,.4495-.1319,.0957-.0874,.1599-.2083,.1927-.3627,.0328-.1537,.0505-.3218,.0505-.5029v-3.0757c0-.1865-.0177-.3545-.0505-.5028-.0328-.1482-.097-.2651-.1927-.3505-.097-.0847-.2473-.1277-.4495-.1277-.1927,0-.3389,.043-.4372,.1277-.0998,.0854-.1654,.2023-.1982,.3505-.0328,.1483-.0492,.3163-.0492,.5028v3.0757c0,.1811,.0151,.3492,.0451,.5029,.0301,.1544,.0943,.2753,.1941,.3627,.09831,.0882,.24731,.1319,.4454,.1319Z" style="fill: rgb(186, 186, 186); transform-origin: 389.563px 132.14px;" id="elxgoveuam8" class="animable"></path><path d="M394.21309,135.5618c-.4947,0-.88-.0909-1.1546-.2726-.2747-.1811-.4646-.4393-.5684-.7748-.1052-.3354-.1572-.7364-.1572-1.2037v-4.5186h1.1874v4.6586c0,.2091,.01371,.4058,.041,.5896,.0273,.1845,.0915,.3327,.194,.4455,.1011,.1127,.2542,.1687,.4578,.1687,.2145,0,.36891-.056,.46591-.1687,.09559-.1128,.15849-.261,.18859-.4455,.03-.1838,.04641-.3805,.04641-.5896v-4.6586h1.17919v4.5186c0,.4673-.0533,.8683-.1571,1.2037-.1053,.3355-.2924,.5937-.5644,.7748-.2732,.1817-.6585,.2726-1.1586,.2726Z" style="fill: rgb(186, 186, 186); transform-origin: 394.213px 132.177px;" id="el2d2iipblztq" class="animable"></path><path d="M397.04969,135.4709v-6.6788h1.2201v5.8378h1.6164v.841h-2.8365Z" style="fill: rgb(186, 186, 186); transform-origin: 398.468px 132.132px;" id="el50jkoh07d3y" class="animable"></path><path d="M402.16949,135.5618c-.4018,0-.73649-.0786-1.0057-.235-.2692-.1572-.47279-.386-.61079-.6887-.13661-.302-.21451-.6729-.23091-1.1129l1.048-.2063c.011,.2582,.0424,.4864,.0943,.6845,.0519,.1975,.1325,.3505,.2391,.4578,.108,.1065,.2487,.1605,.425,.1605,.1981,0,.33751-.0587,.4208-.1776,.082-.1175,.123-.2678,.123-.4489,0-.2917-.0656-.5308-.1981-.7173-.13119-.1872-.3075-.3737-.5275-.5609l-.8403-.742c-.23639-.2036-.4249-.4304-.5657-.6804-.1393-.2501-.2104-.5589-.2104-.9271,0-.5281,.1544-.9346,.4618-1.2209,.3088-.2855,.7283-.4283,1.2626-.4283,.3129,0,.5739,.0478,.7829,.1441,.2091,.0964,.37441,.2296,.4987,.3997,.123,.1708,.2159,.3641,.276,.5814,.0602,.2173,.0998,.4468,.1162,.6886l-1.0398,.1811c-.011-.2084-.0342-.3956-.06969-.5602-.03551-.1654-.09841-.2945-.18991-.3874-.0902-.0936-.22409-.1407-.399-.1407-.1817,0-.32109,.0594-.4168,.1776-.097,.1182-.1448,.2651-.1448,.4407,0,.2261,.04651,.4112,.1407,.5568,.093,.1455,.2282,.2958,.4031,.4495l.8335,.7337c.2746,.231,.5097,.5015,.7051,.8123,.1953,.3102,.2924,.686,.2924,1.1253,0,.319-.0697,.6018-.2105,.8492-.1393,.2473-.3347,.4413-.58479,.5813-.25,.1401-.54381,.2105-.87851,.2105Z" style="fill: rgb(186, 186, 186); transform-origin: 402.083px 132.14px;" id="elxjd0lv8p4g" class="animable"></path></g><g id="elk0oaom5klc9" class="animable" style="transform-origin: 370.823px 78.982px;"><path d="M361.34149,81.7219v-5.4935h1.6137c.33,0,.59781,.0608,.8041,.1831,.20571,.1223,.35671,.2992,.4544,.5322,.097,.2329,.1455,.5144,.1455,.8444,0,.3573-.0608,.6456-.1831,.8649-.1216,.2193-.2924,.3785-.5117,.4782-.2193,.0991-.4783,.149-.7768,.149h-.5425v2.4417h-1.0036Zm1.0036-3.1468h.37991c.18039,0,.32179-.0259,.42359-.0779,.1018-.0519,.1721-.1359,.21041-.2514,.03819-.1154,.05739-.2698,.05739-.4645,0-.1988-.01439-.3601-.0437-.4851-.0294-.1243-.093-.2159-.19-.2746-.09769-.0588-.25-.0882-.45769-.0882h-.37991v1.6417Z" style="fill: rgb(186, 186, 186); transform-origin: 362.85px 78.9752px;" id="el8m0ktybfe5m" class="animable"></path><path d="M364.88859,81.7219v-5.4935h2.3058v.705h-1.3035v1.5802h1.0248v.6989h-1.0248v1.8173h1.3172v.6921h-2.3195Z" style="fill: rgb(186, 186, 186); transform-origin: 366.048px 78.9752px;" id="elhxu8swnjz25" class="animable"></path><path d="M367.79149,81.7219v-5.4935h1.3158c.3703,0,.6832,.0437,.93871,.1318,.25549,.0882,.44959,.2391,.58349,.4516s.2008,.5015,.2008,.8677c0,.222-.0205,.4208-.0615,.5971-.041,.1762-.1093,.3265-.2077,.4509-.097,.1243-.2309,.2206-.403,.2883l.7665,2.7061h-1.0043l-.664-2.5162h-.4619v2.5162h-1.0029Zm1.0029-3.1468h.3129c.194,0,.3484-.0287,.4646-.0847,.1148-.0567,.1967-.1469,.2473-.2712,.0492-.1244,.0752-.2842,.0752-.4782,0-.2761-.052-.4831-.1531-.6211-.1025-.138-.2951-.2063-.5807-.2063h-.3662v1.6615Z" style="fill: rgb(186, 186, 186); transform-origin: 369.358px 78.9752px;" id="elqnrmio4z4yb" class="animable"></path><path d="M371.61049,81.7219v-5.4935h.9893v5.4935h-.9893Z" style="fill: rgb(186, 186, 186); transform-origin: 372.105px 78.9752px;" id="elhlc1ifzcryr" class="animable"></path><path d="M374.939,81.7964c-.38941,0-.69821-.0725-.92911-.2166-.23089-.1449-.3963-.3532-.496-.6245-.0984-.2712-.149-.5923-.149-.9626v-2.055c0-.371,.0506-.6886,.149-.953,.0997-.2644,.26511-.4673,.496-.6074,.2309-.14,.5397-.2097,.92911-.2097,.39759,0,.71049,.0697,.93869,.2097,.2282,.1401,.3935,.343,.496,.6074,.1011,.2644,.1517,.582,.1517,.953v2.0612c0,.3669-.0506,.6845-.1517,.953-.1025,.2692-.2678,.4776-.496,.6245-.2282,.1468-.5411,.22-.93869,.22Zm0-.7393c.16669,0,.28969-.0362,.36889-.1086,.0793-.0724,.1326-.1715,.1599-.2985,.0273-.1264,.041-.2644,.041-.4134v-2.5298c0-.1537-.0137-.2917-.041-.414-.0273-.1216-.0806-.218-.1599-.2876-.0792-.0704-.2022-.1052-.36889-.1052-.15851,0-.27871,.0348-.35941,.1052-.0819,.0696-.13659,.166-.16259,.2876-.02731,.1223-.04091,.2603-.04091,.414v2.5298c0,.149,.0123,.287,.0368,.4134,.0246,.127,.0779,.2261,.1599,.2985,.0806,.0724,.2036,.1086,.36621,.1086Z" style="fill: rgb(186, 186, 186); transform-origin: 374.945px 78.982px;" id="el8ighcs3q935" class="animable"></path><path d="M377.26589,81.7219v-5.4935h1.2954c.4468,0,.7966,.0608,1.048,.1831,.25,.1223,.429,.3095,.5356,.5629,.1066,.2535,.1598,.5739,.1598,.9633v2.0072c0,.3976-.0532,.729-.1598,.9934-.1066,.265-.28289,.4611-.5288,.5902-.2473,.1292-.5848,.1934-1.0139,.1934h-1.3363Zm1.003-.6989h.306c.2309,0,.3949-.0403,.4946-.1216,.0998-.0813,.1613-.2002,.1831-.356,.0233-.1564,.0342-.347,.0342-.5732v-2.1028c0-.2214-.0164-.3997-.04779-.5356-.03141-.136-.097-.235-.19681-.2986-.0997-.0628-.2596-.0949-.4809-.0949h-.2924v4.0827Z" style="fill: rgb(186, 186, 186); transform-origin: 378.785px 78.9752px;" id="el8j91tdcvpks" class="animable"></path></g><g id="ellh845xhrkap" class="animable" style="transform-origin: 303.912px 97.6493px;"><path d="M292.4312,113.8344v-25.9673c-.1585,.0793-.4686,.1982-.9291,.356-.4611,.1578-.9681,.3102-1.5215,.4543-.5533,.1455-1.0609,.2835-1.5214,.4154-.4618,.1318-.7843,.237-.9688,.3163v-4.0711c.369-.1319,.8301-.3163,1.3835-.5534s1.1395-.5069,1.7585-.8103c.619-.3026,1.199-.6387,1.7394-1.0077,.5397-.3689,.9811-.7515,1.324-1.1463h4.1893v32.0141h-5.4539Z" style="fill: rgb(176, 190, 197); transform-origin: 292.688px 97.8273px;" id="elba5f9ti4kbk" class="animable"></path><path d="M303.5767,113.8344v-3.873l7.9045-12.2133c.5794-.895,1.1266-1.7517,1.6403-2.5688,.5138-.8164,.9353-1.6663,1.2646-2.5497,.3293-.882,.4947-1.8507,.4947-2.9049,0-1.1853-.2118-2.0946-.6327-2.7266-.4215-.6326-1.0808-.9489-1.9764-.9489-.8431,0-1.5017,.2371-1.9758,.7112-.4741,.4748-.7973,1.0938-.9688,1.8576-.1715,.7651-.2569,1.6075-.2569,2.5298v1.3438h-5.3753v-1.423c0-1.8973,.2829-3.5629,.8499-4.9996,.5664-1.4361,1.4689-2.562,2.7075-3.379,1.2386-.8164,2.8584-1.2257,4.8615-1.2257,2.7403,0,4.7953,.7379,6.1658,2.2135,1.3698,1.4757,2.055,3.5314,2.055,6.1658,0,1.3179-.1844,2.5093-.5534,3.5765-.3689,1.0671-.8567,2.0892-1.462,3.0634-.6066,.9749-1.2652,1.9765-1.9764,3.004l-6.5607,9.9595h9.7225v4.3874h-15.9279Z" style="fill: rgb(176, 190, 197); transform-origin: 311.956px 97.6493px;" id="elonalnxcii9" class="animable"></path></g><path d="M370.43,99.704v-3.0873h-3.75481v-1.8309l3.27381-7.649h2.49769v7.7733h1.2885v1.7066h-1.2885v3.0873h-2.01669Zm-1.95391-4.7939h1.95391v-5.4614l-1.95391,5.4614Z" style="fill: rgb(176, 190, 197); transform-origin: 370.205px 93.4204px;" id="el03onsb2fispx" class="animable"></path><g id="elv0mypm3en5" class="animable" style="transform-origin: 432.76px 97.6493px;"><path d="M414.55969,113.8344v-3.873l7.9045-12.2133c.5793-.895,1.1273-1.7517,1.641-2.5688,.51381-.8164,.9346-1.6663,1.2639-2.5497,.3293-.882,.4946-1.8507,.4946-2.9049,0-1.1853-.2118-2.0946-.6326-2.7266-.4222-.6326-1.0808-.9489-1.9758-.9489-.8444,0-1.503,.2371-1.9771,.7112-.4741,.4748-.7966,1.0938-.9674,1.8576-.1722,.7651-.2569,1.6075-.2569,2.5298v1.3438h-5.3753v-1.423c0-1.8973,.2828-3.5629,.8499-4.9996,.5657-1.4361,1.46751-2.562,2.7068-3.379,1.2379-.8164,2.8584-1.2257,4.8615-1.2257,2.7396,0,4.796,.7379,6.1651,2.2135,1.3705,1.4757,2.0564,3.5314,2.0564,6.1658,0,1.3179-.1858,2.5093-.5534,3.5765-.3703,1.0671-.8567,2.0892-1.4634,3.0634-.6053,.9749-1.2639,1.9765-1.9757,3.004l-6.5614,9.9595h9.7231v4.3874h-15.9278Z" style="fill: rgb(176, 190, 197); transform-origin: 422.939px 97.6493px;" id="el6scdcjydr7s" class="animable"></path><path d="M434.20269,113.8344v-3.873l7.9045-12.2133c.5793-.895,1.1272-1.7517,1.641-2.5688,.5137-.8164,.9346-1.6663,1.2639-2.5497,.3293-.882,.4946-1.8507,.4946-2.9049,0-1.1853-.2118-2.0946-.6326-2.7266-.4222-.6326-1.0808-.9489-1.9758-.9489-.8444,0-1.503,.2371-1.9771,.7112-.47419,.4748-.7966,1.0938-.9674,1.8576-.1722,.7651-.2569,1.6075-.2569,2.5298v1.3438h-5.3753v-1.423c0-1.8973,.2828-3.5629,.8499-4.9996,.5656-1.4361,1.46751-2.562,2.7068-3.379,1.2379-.8164,2.8584-1.2257,4.8615-1.2257,2.7396,0,4.796,.7379,6.1651,2.2135,1.3705,1.4757,2.0564,3.5314,2.0564,6.1658,0,1.3179-.1859,2.5093-.5534,3.5765-.3703,1.0671-.8567,2.0892-1.4634,3.0634-.6053,.9749-1.2639,1.9765-1.9758,3.004l-6.5613,9.9595h9.7231v4.3874h-15.9278Z" style="fill: rgb(176, 190, 197); transform-origin: 442.582px 97.6493px;" id="eldutgg4m7iaf" class="animable"></path></g><path d="M347.69419,122.0743v-3.0873h-3.7548v-1.831l3.2738-7.6489h2.49781v7.7733h1.28779v1.7066h-1.28779v3.0873h-2.01681Zm-1.9553-4.7939h1.9553v-5.4614l-1.9553,5.4614Z" style="fill: rgb(176, 190, 197); transform-origin: 347.469px 115.791px;" id="elx59lryuhrma" class="animable"></path><path d="M394.01359,122.2451c-.7761,0-1.4074-.181-1.8938-.5431-.4851-.3621-.8403-.8561-1.0617-1.4819-.2227-.6258-.3334-1.3267-.3334-2.1021v-4.4066c0-.8171,.0929-1.5536,.2788-2.2108,.1858-.6565,.5164-1.1764,.9933-1.559,.4755-.3826,1.1423-.5746,2.0004-.5746,.7351,0,1.3322,.1216,1.7927,.3649,.4604,.2432,.7993,.5971,1.0165,1.063,.2173,.4652,.3252,1.0391,.3252,1.7216,0,.0314,.0028,.0649,.0082,.1011,.0055,.0362,.00821,.0697,.00821,.1011h-2.06461c0-.5588-.0669-.9776-.2008-1.257-.1353-.2794-.425-.4188-.869-.4188-.2692,0-.4865,.0827-.6518,.248-.1653,.166-.2869,.4372-.36479,.815-.07791,.3778-.11621,.882-.11621,1.5126v1.5051c.1449-.2378,.3649-.427,.6586-.5664,.2952-.1401,.6395-.2097,1.033-.2097,.6818-.0103,1.2202,.14,1.6137,.4502,.3922,.3101,.6736,.7399,.8444,1.2878,.1708,.5486,.2569,1.1737,.2569,1.8774,0,.8171-.1038,1.5488-.3102,2.1951-.2077,.6469-.54919,1.1559-1.0247,1.5282-.47549,.3724-1.1218,.5589-1.9389,.5589Zm.015-1.6601c.3006,0,.52741-.093,.6832-.2795,.1544-.1858,.2637-.4447,.32521-.7754,.06279-.3313,.09289-.7194,.09289-1.1641,0-.455-.0178-.8609-.0533-1.2182-.0369-.3566-.1325-.6408-.2869-.8533-.1558-.2117-.414-.3176-.7761-.3176-.1763,0-.3389,.0334-.4892,.1004-.1503,.0676-.2787,.153-.388,.2562-.108,.1038-.1941,.207-.2556,.3101v1.971c0,.3512,.0328,.6771,.10121,.977,.06689,.3006,.18579,.5411,.35659,.7214,.1708,.1811,.4003,.272,.69,.272Z" style="fill: rgb(176, 190, 197); transform-origin: 394.006px 115.806px;" id="el05gcofz4lg2s" class="animable"></path><g id="el4z5omym6k4o" class="animable" style="transform-origin: 370.978px 57.0674px;"><path d="M358.09979,65.7647c-1.0596,0-1.9136-.1981-2.5612-.5957-.6484-.397-1.1184-.962-1.4115-1.6937-.2924-.7317-.4393-1.585-.4393-2.5612v-.5848h2.8646v.5014c.0137,.5302,.0629,.9824,.1462,1.3589,.084,.3764,.2405,.662,.4707,.8574,.2296,.1954,.5466,.2924,.951,.2924,.4318,0,.7563-.1045,.9722-.3136s.3621-.5151,.4393-.9196c.0765-.4044,.1148-.8854,.1148-1.4429,0-.8635-.136-1.5433-.4079-2.0379-.2712-.4946-.798-.7631-1.5782-.8055h-.4809v-2.3208h.4393c.7665-.0136,1.296-.2193,1.589-.6162,.2925-.3976,.4387-1.035,.4387-1.9129,0-.7112-.108-1.2687-.3239-1.6731-.2165-.4038-.6312-.606-1.2441-.606-.5991,0-1.0001,.2234-1.2024,.6688-.20219,.4461-.3101,1.0248-.3238,1.7353v.6272h-2.8646v-.8151c0-.9619,.1708-1.7804,.5124-2.4567,.3416-.6757,.8396-1.1915,1.49481-1.5474,.65519-.3553,1.44969-.5329,2.38359-.5329,.962,0,1.7702,.1742,2.42541,.5226,.65509,.3484,1.15319,.854,1.49479,1.516s.5124,1.4736,.5124,2.4356c0,1.0036-.2091,1.8261-.62719,2.467-.41811,.6415-.95511,1.0596-1.61031,1.2543,.4461,.1394,.8362,.3798,1.171,.7214s.5957,.7877,.78431,1.3384c.18789,.5506,.28219,1.2161,.28219,1.9963,0,1.0179-.1435,1.9129-.4291,2.6863-.2856,.774-.7522,1.3766-1.4005,1.809-.6484,.4318-1.5092,.6477-2.5818,.6477Z" style="fill: rgb(176, 190, 197); transform-origin: 358.099px 57.0674px;" id="el3he34tj5985" class="animable"></path><path d="M364.58049,56.8792v-2.8011h2.7177v2.8011h-2.7177Zm0,7.0669v-2.8018h2.7177v2.8018h-2.7177Z" style="fill: rgb(176, 190, 197); transform-origin: 365.939px 59.0121px;" id="ellrefn8akqb8" class="animable"></path><path d="M373.44559,65.7647c-1.13,0-2.0045-.2091-2.6248-.6272-.6204-.4181-1.0481-1.0104-1.28579-1.7769-.23641-.7666-.35531-1.6656-.35531-2.6973h2.823c0,.5719,.0382,1.0767,.1147,1.516,.07661,.4393,.22961,.7809,.4605,1.0241,.2296,.2446,.56711,.3594,1.0139,.345,.4878,0,.8321-.1564,1.0343-.47s.3307-.7529,.3867-1.3172,.0847-1.2229,.0847-1.9758c0-.6551-.0396-1.2263-.1161-1.7141-.0766-.4878-.2269-.8676-.4496-1.1395s-.5711-.4079-1.0453-.4079c-.4044,0-.7378,.136-1.0029,.4079-.265,.2719-.4604,.6306-.5861,1.0767h-2.4868l.1667-9.4294h7.6107v2.5927h-5.1854l-.16669,4.0766c.209-.2507,.511-.4523,.90859-.606,.3976-.153,.8403-.2439,1.3281-.2719,.8909-.0417,1.6164,.1462,2.1739,.5643s.9688,1.0248,1.2339,1.8193c.265,.7946,.3976,1.7422,.3976,2.8435,0,.8915-.06009,1.7141-.1777,2.467-.1188,.7521-.3388,1.4039-.6585,1.9546-.3211,.5506-.7707,.979-1.3487,1.2857-.5793,.3061-1.3281,.4598-2.2476,.4598Z" style="fill: rgb(176, 190, 197); transform-origin: 373.529px 57.1719px;" id="el9c43gggq18" class="animable"></path><path d="M383.83549,65.7442c-.9756,0-1.7763-.1674-2.40349-.5021-.62721-.3341-1.08761-.8219-1.38-1.4634-.29241-.6409-.43861-1.4217-.43861-2.3413v-.2302h2.7587c0,.7528,.0943,1.3171,.2828,1.6936,.1886,.3764,.5889,.5643,1.2024,.5643,.3758,0,.6682-.1114,.8772-.3348,.2091-.2227,.36351-.5923,.46051-1.1081,.097-.5151,.14619-1.1915,.14619-2.0277v-2.0277c-.1954,.3204-.4878,.5711-.8786,.7522-.3894,.1817-.8567,.2794-1.4005,.2931-.9059,.0136-1.6274-.1988-2.163-.6381-.537-.4386-.9209-1.035-1.1505-1.7872-.2295-.7529-.3443-1.6028-.3443-2.5511,0-1.1149,.1462-2.0939,.4386-2.937,.2924-.843,.7666-1.5057,1.421-1.9867,.6559-.4803,1.5126-.7207,2.5716-.7207,1.0466,0,1.89651,.2336,2.551,.7002,.6558,.4673,1.1327,1.1116,1.4319,1.9341,.30061,.8226,.44961,1.7633,.44961,2.8223v6.0004c0,1.1013-.12851,2.0981-.38671,2.9896-.25829,.8923-.7037,1.5994-1.3377,2.122s-1.5372,.7843-2.7081,.7843Zm.0218-8.9279c.3894,0,.6996-.097,.9305-.2924,.2296-.1947,.414-.4038,.5534-.6272v-2.6343c0-.4878-.041-.9305-.1257-1.3275-.0834-.3976-.2337-.718-.44949-.9619-.21591-.2439-.52611-.3655-.93051-.3655-.38949,0-.6928,.125-.9087,.3758-.2159,.2514-.3662,.5998-.4495,1.0452-.0834,.4468-.1257,.9695-.1257,1.5686,0,.5992,.0246,1.143,.0738,1.6308,.0478,.4878,.17761,.8745,.38661,1.1601,.20909,.2855,.55749,.4283,1.04529,.4283Z" style="fill: rgb(176, 190, 197); transform-origin: 383.836px 57.0678px;" id="el0jztzyq7ofyn" class="animable"></path></g><g id="el8r71fhh6yd5" class="animable" style="transform-origin: 434.227px 64.259px;"><path d="M413.47759,72.9354c-1.115,0-2.0004-.237-2.6549-.7112-.6559-.4734-1.1259-1.1464-1.4115-2.0174-.2869-.8711-.429-1.8993-.429-3.0839v-5.6869c0-1.2126,.1394-2.2579,.4181-3.1358,.27871-.8779,.7706-1.5502,1.4743-2.0175,.7037-.4666,1.6752-.7002,2.9159-.7002,1.1573,0,2.0768,.1954,2.76,.5855s1.1737,.951,1.4743,1.6827c.2993,.7317,.4496,1.6205,.4496,2.6658v.8778h-2.9486v-.9619c0-.5431-.0383-1.0104-.11479-1.4005-.07651-.3901-.22961-.6866-.46051-.8888-.22949-.2016-.6026-.3027-1.1177-.3027-.54379,0-.9373,.1325-1.1819,.3969-.2432,.2651-.3962,.6135-.4591,1.0453-.0629,.4325-.0943,.9066-.0943,1.4217v7.0874c0,.5855,.0492,1.0945,.1462,1.5262,.097,.4325,.2788,.7632,.5438,.9934,.2638,.2302,.6409,.345,1.1287,.345,.5014,0,.8854-.1257,1.1505-.3764,.2637-.2508,.4495-.5992,.55331-1.0453,.10519-.4461,.15719-.9756,.15719-1.5891v-1.5891h-1.8187v-1.9443h4.5992v8.5931h-1.98669l-.22951-1.6725c-.2227,.5575-.5616,1.0139-1.0139,1.3692-.45359,.3559-1.0698,.5335-1.85,.5335Z" style="fill: rgb(186, 186, 186); transform-origin: 413.77px 64.259px;" id="else64xcqhcnf" class="animable"></path><path d="M425.56039,72.9354c-1.2543,0-2.2299-.2302-2.9268-.69-.6968-.4605-1.1778-1.115-1.4415-1.9655-.26509-.8499-.3976-1.8679-.3976-3.0525v-11.457h3.0101v11.8123c0,.5301,.0355,1.0281,.1052,1.4948,.0697,.4673,.2323,.8437,.4905,1.1293,.2583,.2855,.645,.4283,1.1601,.4283,.5438,0,.9373-.1428,1.1819-.4283,.2432-.2856,.4045-.662,.481-1.1293,.0765-.4667,.11471-.9647,.11471-1.4948v-11.8123h2.98969v11.457c0,1.1846-.1326,2.2026-.3976,3.0525-.2638,.8505-.742,1.505-1.432,1.9655-.69,.4598-1.6683,.69-2.9377,.69Z" style="fill: rgb(186, 186, 186); transform-origin: 425.561px 64.3529px;" id="elm2226h7yhn" class="animable"></path><path d="M432.753,72.7052v-16.9348h7.10919v2.1745h-4.0144v4.8712h3.1563v2.1534h-3.1563v5.6035h4.0554v2.1322h-7.15019Z" style="fill: rgb(186, 186, 186); transform-origin: 436.328px 64.2378px;" id="elg656d7x0rhi" class="animable"></path><path d="M445.96719,72.9354c-1.018,0-1.86919-.1988-2.551-.5964-.68319-.3969-1.1997-.979-1.5468-1.7455-.3498-.7666-.5438-1.7073-.5861-2.8223l2.6548-.5226c.0287,.6552,.108,1.2331,.2405,1.7353,.1325,.5014,.3348,.8881,.6067,1.16s.6299,.4079,1.07671,.4079c.50139,0,.85669-.1496,1.06569-.4496,.2091-.2992,.31431-.6797,.31431-1.1395,0-.7385-.16671-1.3445-.50151-1.8187-.3347-.4741-.78149-.9475-1.339-1.4217l-2.13149-1.8815c-.59991-.5158-1.07671-1.091-1.432-1.725-.35661-.634-.53431-1.4183-.53431-2.3522,0-1.3377,.3908-2.3693,1.171-3.0942,.7802-.7248,1.8474-1.0869,3.1987-1.0869,.7952,0,1.45661,.1223,1.9867,.3655,.5302,.2439,.951,.5821,1.2653,1.0138,.3129,.4325,.5465,.9237,.69961,1.4744,.153,.5506,.25139,1.1327,.29239,1.7455l-2.633,.4598c-.0287-.5295-.0875-1.0029-.179-1.4217-.0902-.4181-.2501-.7454-.4796-.9825-.2309-.2363-.5684-.3552-1.0152-.3552-.4591,0-.8117,.1496-1.0549,.4495-.2446,.2999-.3662,.6723-.3662,1.1184,0,.5718,.1189,1.0419,.3553,1.4115s.578,.7494,1.0248,1.1395l2.111,1.8603c.6969,.5855,1.2926,1.2721,1.7886,2.0598,.4933,.7871,.7419,1.7388,.7419,2.8537,0,.8082-.1776,1.5263-.5328,2.1534-.3567,.6272-.85129,1.1184-1.48529,1.4737-.634,.3559-1.37591,.5335-2.22581,.5335Z" style="fill: rgb(186, 186, 186); transform-origin: 445.747px 64.259px;" id="eljg2yt47jkuk" class="animable"></path><path d="M453.72269,72.7052v-14.6557h-2.6972v-2.2791h8.4469v2.2791h-2.6548v14.6557h-3.0949Z" style="fill: rgb(186, 186, 186); transform-origin: 455.249px 64.2378px;" id="el3jrexfrw7fa" class="animable"></path></g></g></g><g id="freepik--Court--inject-77" class="animable" style="transform-origin: 375.836px 351.462px;"><g id="el012zwcf8gak3" class="animable" style="transform-origin: 375.836px 351.462px;"><rect x="25.4348" y="446.4319" width="700.80208" height="17.1497" style="fill: rgb(38, 50, 56); transform-origin: 375.836px 455.007px;" id="el3fc2vtu60gj" class="animable"></rect><polygon points="725.70528 446.4319 25.9504 446.4319 130.21239 239.3422 621.44339 239.3422 725.70528 446.4319" style="fill: rgb(176, 190, 197); stroke: rgb(38, 50, 56); stroke-linecap: round; stroke-linejoin: round; transform-origin: 375.828px 342.887px;" id="elo7pmjopzev" class="animable"></polygon><polygon points="651.43009 411.8681 100.2257 411.8681 164.4615 257.9508 587.19429 257.9508 651.43009 411.8681" style="fill: rgb(255, 255, 255); stroke: rgb(255, 255, 255); stroke-miterlimit: 10; transform-origin: 375.828px 334.909px;" id="elubf5u7wcc3" class="animable"></polygon><polygon points="641.46229 407.2494 110.1935 407.2494 169.557 260.7014 582.09879 260.7014 641.46229 407.2494" style="fill: rgb(176, 190, 197); stroke: rgb(255, 255, 255); stroke-linecap: round; stroke-linejoin: round; transform-origin: 375.828px 333.975px;" id="elj3xprufmhgc" class="animable"></polygon><g id="elckenawuexee"><path d="M414.05769,324.7579c-.906-13.5864-18.005-24.1367-38.2298-24.1367s-37.3238,10.5503-38.22989,24.1367c-.95111,14.2624,16.14539,26.356,38.22989,26.356s39.181-12.0936,38.2298-26.356Z" style="opacity: 0.32; stroke: rgb(255, 255, 255); stroke-miterlimit: 10; transform-origin: 375.828px 325.868px;" class="animable"></path></g><path d="M414.05769,324.7579c-.906-13.5864-18.005-24.1367-38.2298-24.1367s-37.3238,10.5503-38.22989,24.1367c-.95111,14.2624,16.14539,26.356,38.22989,26.356s39.181-12.0936,38.2298-26.356Z" style="fill: none; stroke: rgb(255, 255, 255); stroke-linecap: round; stroke-linejoin: round; transform-origin: 375.828px 325.868px;" id="elyqbjnscrw7" class="animable"></path><g id="eliabp4ltl0xp" class="animable" style="transform-origin: 196.309px 330.159px;"><g id="elg7ngqvewasc"><polygon points="219.4314 351.3431 232.7057 300.4297 153.4547 300.4297 132.8299 351.3431 219.4314 351.3431" style="opacity: 0.32; stroke: rgb(255, 255, 255); stroke-miterlimit: 10; transform-origin: 182.768px 325.886px;" class="animable"></polygon></g><polygon points="219.4314 351.3431 232.7057 300.4297 153.4547 300.4297 132.8299 351.3431 219.4314 351.3431" style="fill: none; stroke: rgb(255, 255, 255); stroke-miterlimit: 10; transform-origin: 182.768px 325.886px;" id="elj9obgj25ji" class="animable"></polygon><path d="M177.5166,380.9309h-56.67258l41.13468-101.543h47.53c38.7463,0,66.5535,19.7783,61.7192,46.3168v.0001c-5.3267,29.2414-47.512,55.2261-93.7113,55.2261Z" style="fill: none; stroke: rgb(255, 255, 255); stroke-miterlimit: 10; transform-origin: 196.309px 330.159px;" id="el5frph7q5p4r" class="animable"></path></g><path d="M188.4504,324.5972c4.4396-13.5789,24.2781-24.1234,44.4975-24.1234s34.5693,10.5445,31.9408,24.1234c-2.7593,14.2544-22.9967,26.3409-45.0747,26.3409s-36.0241-12.0865-31.3636-26.3409Z" style="fill: none; stroke: rgb(255, 255, 255); stroke-linecap: round; stroke-linejoin: round; transform-origin: 226.376px 325.706px;" id="ela3pjd4srql" class="animable"></path><g id="elnu9cp6uyqq" class="animable" style="transform-origin: 555.401px 330.159px;"><g id="el2r4g38jp54o"><polygon points="532.27879 351.3431 519.00439 300.4297 598.25549 300.4297 618.88029 351.3431 532.27879 351.3431" style="opacity: 0.32; stroke: rgb(255, 255, 255); stroke-miterlimit: 10; transform-origin: 568.942px 325.886px;" class="animable"></polygon></g><polygon points="532.27879 351.3431 519.00439 300.4297 598.25549 300.4297 618.88029 351.3431 532.27879 351.3431" style="fill: none; stroke: rgb(255, 255, 255); stroke-miterlimit: 10; transform-origin: 568.942px 325.886px;" id="elv7z280rz1wp" class="animable"></polygon><path d="M574.19349,380.9309h56.6726l-41.1346-101.543h-47.5301c-38.7462,0-66.55339,19.7783-61.7191,46.3168v.0001c5.3266,29.2414,47.512,55.2261,93.7112,55.2261Z" style="fill: none; stroke: rgb(255, 255, 255); stroke-miterlimit: 10; transform-origin: 555.401px 330.159px;" id="elal81r0vuqt" class="animable"></path></g><path d="M563.25979,324.5972c-4.4396-13.5789-24.2782-24.1234-44.4976-24.1234s-34.56919,10.5445-31.9407,24.1234c2.7593,14.2544,22.9967,26.3409,45.0747,26.3409s36.0241-12.0865,31.3636-26.3409Z" style="fill: none; stroke: rgb(255, 255, 255); stroke-linecap: round; stroke-linejoin: round; transform-origin: 525.334px 325.706px;" id="el6f13ujvhr4" class="animable"></path><line x1="375.82789" y1="405.5172" x2="375.82789" y2="260.6578" style="fill: none; stroke: rgb(255, 255, 255); stroke-miterlimit: 10; transform-origin: 375.828px 333.088px;" id="el9ej4o3am56e" class="animable"></line></g></g><g id="freepik--Basketball_hoops--inject-77" class="animable" style="transform-origin: 369.716px 247.569px;"><g id="el950brbopq2q" class="animable" style="transform-origin: 114.293px 247.569px;"><g id="eldc3k1ohqcxh" class="animable" style="transform-origin: 101.317px 247.569px;"><polygon points="79.5201 221.0229 118.27393 205.0908 115.99268 199.541 79.5201 214.5353 79.5201 221.0229" style="fill: rgb(38, 50, 56); transform-origin: 98.897px 210.282px;" id="elkmnl2io4g3" class="animable"></polygon><polygon points="79.5201 238.2455 119.29932 232.5996 118.45654 226.6591 79.5201 232.1855 79.5201 238.2455" style="fill: rgb(38, 50, 56); transform-origin: 99.4097px 232.452px;" id="elgltdzo2fo0p" class="animable"></polygon><g id="elql7dfyuegi" class="animable" style="transform-origin: 124.251px 204.607px;"><rect x="128.15406" y="164.0223" width="3.67358" height="57.2609" style="fill: rgb(255, 255, 255); stroke: rgb(38, 50, 56); stroke-linecap: round; stroke-linejoin: round; transform-origin: 129.991px 192.653px;" id="elzbe32dy14qj" class="animable"></rect><rect x="116.6741" y="187.9306" width="3.67358" height="57.2608" style="fill: rgb(255, 255, 255); stroke: rgb(38, 50, 56); stroke-linecap: round; stroke-linejoin: round; transform-origin: 118.511px 216.561px;" id="el67tr20xx8m6" class="animable"></rect><polygon points="120.34768 187.9306 131.82764 164.0223 131.82764 221.2832 120.34768 245.1914 120.34768 187.9306" style="fill: rgb(176, 190, 197); stroke: rgb(38, 50, 56); stroke-linecap: round; stroke-linejoin: round; transform-origin: 126.088px 204.607px;" id="elitl542s293" class="animable"></polygon><polygon points="122.89754 199.9634 129.27779 186.6758 129.27779 206.3385 122.89754 219.626 122.89754 199.9634" style="fill: none; stroke: rgb(38, 50, 56); stroke-linecap: round; stroke-linejoin: round; transform-origin: 126.088px 203.151px;" id="elyivaeqhtd4s" class="animable"></polygon><polygon points="116.6741 187.9306 128.15406 164.0223 131.82764 164.0223 120.34768 187.9306 116.6741 187.9306" style="fill: rgb(255, 255, 255); stroke: rgb(38, 50, 56); stroke-linecap: round; stroke-linejoin: round; transform-origin: 124.251px 175.976px;" id="elo24glxm99dd" class="animable"></polygon></g><g id="ela056upk0ij" class="animable" style="transform-origin: 92.2804px 269.573px;"><polygon points="79.8061 250.2642 79.8061 214.961 70.8061 214.961 70.8061 257.2564 99.2763 264.5216 96.6654 331.115 109.6254 331.115 108.2763 257.5294 79.8061 250.2642" style="fill: rgb(38, 50, 56); transform-origin: 90.2157px 273.038px;" id="elr5dbonrg2x" class="animable"></polygon><g id="elx9l716iqbzg" class="animable" style="transform-origin: 92.2804px 269.573px;"><polygon points="70.8061 214.961 73.6736 208.0311 82.6736 208.0311 79.8061 214.961 70.8061 214.961" style="fill: rgb(38, 50, 56); transform-origin: 76.7398px 211.496px;" id="elhtwf5dlao5m" class="animable"></polygon><polygon points="82.6736 243.3343 82.6736 208.0311 73.6736 208.0311 70.8061 214.961 79.8061 214.961 79.8061 250.2642 108.2763 257.5294 109.6254 331.115 113.7547 321.1359 111.1438 250.5995 82.6736 243.3343" style="fill: rgb(38, 50, 56); transform-origin: 92.2804px 269.573px;" id="elbkkoo2yeduq" class="animable"></polygon></g></g></g><g id="el66zgjkwi8l" class="animable" style="transform-origin: 141.723px 217.968px;"><g id="elqoez0qb139" class="animable" style="transform-origin: 145.589px 218.231px;"><polyline points="134.16528 215.2219 137.0345 223.1124 138.7646 216.9281 141.3384 223.471 143.6099 217.6129 146.5987 223.5906 148.7507 217.4934 151.1417 222.395 152.935 216.1783 154.011 220.7213 155.6847 214.385 156.2825 219.4062 157.2389 212.2331" style="fill: none; stroke: rgb(38, 50, 56); stroke-linecap: round; stroke-linejoin: round; stroke-width: 0.5px; transform-origin: 145.702px 217.912px;" id="ell3lvy2rt7mj" class="animable"></polyline><path d="M137.0345,223.1124s1.4917,4.7183,1.4224,8.3223" style="fill: none; stroke: rgb(38, 50, 56); stroke-linecap: round; stroke-linejoin: round; stroke-width: 0.5px; transform-origin: 137.747px 227.274px;" id="elry0ubgauqkp" class="animable"></path><path d="M156.2825,219.4062s-1.7465,8.1473-2.0238,11.4047" style="fill: none; stroke: rgb(38, 50, 56); stroke-linecap: round; stroke-linejoin: round; stroke-width: 0.5px; transform-origin: 155.271px 225.109px;" id="ellvtxyde6rcc" class="animable"></path><polyline points="155.0904 224.7812 154.011 220.7213 150.5162 231.5733" style="fill: none; stroke: rgb(38, 50, 56); stroke-linecap: round; stroke-linejoin: round; stroke-width: 0.5px; transform-origin: 152.803px 226.147px;" id="el5btwhy7w1kw" class="animable"></polyline><polyline points="154.3281 228.801 151.1417 222.395 145.2489 231.5733" style="fill: none; stroke: rgb(38, 50, 56); stroke-linecap: round; stroke-linejoin: round; stroke-width: 0.5px; transform-origin: 149.788px 226.984px;" id="elfslmwg30tjw" class="animable"></polyline><polyline points="150.5162 231.5733 146.5987 223.5906 140.4668 231.1574" style="fill: none; stroke: rgb(38, 50, 56); stroke-linecap: round; stroke-linejoin: round; stroke-width: 0.5px; transform-origin: 145.492px 227.582px;" id="ela749ney849f" class="animable"></polyline><polyline points="138.3876 227.9693 141.3384 223.471 145.2489 231.5733" style="fill: none; stroke: rgb(38, 50, 56); stroke-linecap: round; stroke-linejoin: round; stroke-width: 0.5px; transform-origin: 141.818px 227.522px;" id="elki2azbqavga" class="animable"></polyline><line x1="137.4866" y1="224.3654" x2="140.3975" y2="230.8802" style="fill: none; stroke: rgb(38, 50, 56); stroke-linecap: round; stroke-linejoin: round; stroke-width: 0.5px; transform-origin: 138.942px 227.623px;" id="elc8nqmvp05oe" class="animable"></line><polyline points="133.93811 210.2482 136.537 212.7658 137.4303 207.1621 139.7043 211.6289 141.491 204.8881 144.3335 211.0604 146.9324 204.9693 148.9627 211.0604 151.724 205.8627 152.6173 212.1161 154.9726 207.6494 154.7289 213.4968 156.5956 210.9137" style="fill: none; stroke: rgb(38, 50, 56); stroke-linecap: round; stroke-linejoin: round; stroke-width: 0.5px; transform-origin: 145.267px 209.192px;" id="eljc8lknz8m4" class="animable"></polyline><polyline points="135.8872 215.4459 136.537 212.7658 140.5164 217.0702" style="fill: none; stroke: rgb(38, 50, 56); stroke-linecap: round; stroke-linejoin: round; stroke-width: 0.5px; transform-origin: 138.202px 214.918px;" id="elmrb1pbvp8x" class="animable"></polyline><polyline points="139.3795 216.2581 139.7043 211.6289 143.1965 216.8266 144.3335 211.0604 147.5009 216.989 148.9627 211.0604 151.0743 216.4205" style="fill: none; stroke: rgb(38, 50, 56); stroke-linecap: round; stroke-linejoin: round; stroke-width: 0.5px; transform-origin: 145.227px 214.025px;" id="elvb0y76a6d5" class="animable"></polyline><polyline points="150.8306 215.6896 152.6173 212.1161 153.8356 215.1211 154.7289 213.4968 155.6847 214.385" style="fill: none; stroke: rgb(38, 50, 56); stroke-linecap: round; stroke-linejoin: round; stroke-width: 0.5px; transform-origin: 153.258px 213.903px;" id="el9z0v1gj1zeu" class="animable"></polyline></g><path d="M144.9404,204.3634c-5.3492,0-9.9307,1.7343-11.86028,4.1987h-5.06079l-2.20874,3.8391-.14331,.1793v9.2479l2.31147-3.6002v-4.7195l4.13855-2.1769c.01019,.2242,.03894,.4456,.08911,.6639-.01959,.1606-.02387,.3164,.01428,.4536,0,0-.2146,2.4831,1.48419,3.8454,1.69883,1.3623,2.59943,1.347,3.36093,1.2822,.5349-.0456,1.1499-.3445,1.4725-.52,1.886,.5768,4.0681,.9119,6.4021,.9119,7.0908,0,12.8389-3.0456,12.8389-6.8027s-5.7481-6.8027-12.8389-6.8027Zm0,12.5964c-5.2798,0-9.7338-1.8225-11.16662-4.32,.02564-.6958,.22284-1.7486,1.0105-3.0239,1.41672-2.2937,3.23822-2.0239,4.18272-2.6985,.7097-.5069,.9241-1.1657,.9869-1.4623,1.5135-.3728,3.1996-.5875,4.9865-.5875,6.437,0,11.6552,2.7069,11.6552,6.046s-5.2182,6.0462-11.6552,6.0462Z" style="fill: rgb(38, 50, 56); transform-origin: 141.723px 213.096px;" id="el7os1wuuiwri" class="animable"></path></g></g><g id="elp83fjhdktk" class="animable" style="transform-origin: 625.14px 247.569px;"><g id="el108rohyway1a" class="animable" style="transform-origin: 638.115px 247.569px;"><polygon points="659.91219 221.0229 621.15839 205.0908 623.43959 199.541 659.91219 214.5353 659.91219 221.0229" style="fill: rgb(38, 50, 56); transform-origin: 640.535px 210.282px;" id="elulka2lm2s08" class="animable"></polygon><polygon points="659.91219 238.2455 620.133 232.5996 620.97579 226.6591 659.91219 232.1855 659.91219 238.2455" style="fill: rgb(38, 50, 56); transform-origin: 640.023px 232.452px;" id="el6m83t4uzoks" class="animable"></polygon><g id="el2xx176rxgab" class="animable" style="transform-origin: 615.181px 204.607px;"><g id="elngfy2hhcnd"><rect x="607.60469" y="164.0223" width="3.6735" height="57.2609" style="fill: rgb(255, 255, 255); stroke: rgb(38, 50, 56); stroke-linecap: round; stroke-linejoin: round; transform-origin: 609.441px 192.653px; transform: rotate(180deg);" class="animable"></rect></g><g id="elbztjdv3ngr"><rect x="619.08459" y="187.9306" width="3.6736" height="57.2608" style="fill: rgb(255, 255, 255); stroke: rgb(38, 50, 56); stroke-linecap: round; stroke-linejoin: round; transform-origin: 620.921px 216.561px; transform: rotate(180deg);" class="animable"></rect></g><polygon points="619.08459 187.9306 607.60469 164.0223 607.60469 221.2832 619.08459 245.1914 619.08459 187.9306" style="fill: rgb(176, 190, 197); stroke: rgb(38, 50, 56); stroke-linecap: round; stroke-linejoin: round; transform-origin: 613.345px 204.607px;" id="el6fbg3ijjjmr" class="animable"></polygon><polygon points="616.53479 199.9634 610.15449 186.6758 610.15449 206.3385 616.53479 219.626 616.53479 199.9634" style="fill: none; stroke: rgb(38, 50, 56); stroke-linecap: round; stroke-linejoin: round; transform-origin: 613.345px 203.151px;" id="elvzqdfwgk4pg" class="animable"></polygon><polygon points="622.75819 187.9306 611.27819 164.0223 607.60469 164.0223 619.08459 187.9306 622.75819 187.9306" style="fill: rgb(255, 255, 255); stroke: rgb(38, 50, 56); stroke-linecap: round; stroke-linejoin: round; transform-origin: 615.181px 175.976px;" id="elnnxq6hr8dki" class="animable"></polygon></g><g id="elgnqgappx64h" class="animable" style="transform-origin: 647.152px 269.573px;"><polygon points="659.62619 250.2642 659.62619 214.961 668.62619 214.961 668.62619 257.2564 640.156 264.5216 642.76689 331.115 629.80689 331.115 631.156 257.5294 659.62619 250.2642" style="fill: rgb(38, 50, 56); transform-origin: 649.217px 273.038px;" id="elfbf6yvs6kob" class="animable"></polygon><g id="elf0ci4mpxwdt" class="animable" style="transform-origin: 647.152px 269.573px;"><polygon points="668.62619 214.961 665.75869 208.0311 656.75869 208.0311 659.62619 214.961 668.62619 214.961" style="fill: rgb(38, 50, 56); transform-origin: 662.692px 211.496px;" id="el4kv57uybnjj" class="animable"></polygon><polygon points="656.75869 243.3343 656.75869 208.0311 665.75869 208.0311 668.62619 214.961 659.62619 214.961 659.62619 250.2642 631.156 257.5294 629.80689 331.115 625.67759 321.1359 628.28849 250.5995 656.75869 243.3343" style="fill: rgb(38, 50, 56); transform-origin: 647.152px 269.573px;" id="elxb7v288u9fm" class="animable"></polygon></g></g></g><g id="eleoh9tlgwu4k" class="animable" style="transform-origin: 597.709px 217.968px;"><g id="eljomsuaqn2h9" class="animable" style="transform-origin: 593.844px 218.231px;"><polyline points="605.267 215.2219 602.39779 223.1124 600.66769 216.9281 598.09389 223.471 595.82239 217.6129 592.83359 223.5906 590.68159 217.4934 588.29059 222.395 586.49729 216.1783 585.42129 220.7213 583.74759 214.385 583.14979 219.4062 582.19339 212.2331" style="fill: none; stroke: rgb(38, 50, 56); stroke-linecap: round; stroke-linejoin: round; stroke-width: 0.5px; transform-origin: 593.73px 217.912px;" id="elh58myhbcua4" class="animable"></polyline><path d="M602.39779,223.1124s-1.4917,4.7183-1.4224,8.3223" style="fill: none; stroke: rgb(38, 50, 56); stroke-linecap: round; stroke-linejoin: round; stroke-width: 0.5px; transform-origin: 601.685px 227.274px;" id="ellqqyujd7a" class="animable"></path><path d="M583.14979,219.4062s1.7465,8.1473,2.0238,11.4047" style="fill: none; stroke: rgb(38, 50, 56); stroke-linecap: round; stroke-linejoin: round; stroke-width: 0.5px; transform-origin: 584.162px 225.109px;" id="elq18tguph52" class="animable"></path><polyline points="584.34189 224.7812 585.42129 220.7213 588.91609 231.5733" style="fill: none; stroke: rgb(38, 50, 56); stroke-linecap: round; stroke-linejoin: round; stroke-width: 0.5px; transform-origin: 586.629px 226.147px;" id="elcwjfiwigcwn" class="animable"></polyline><polyline points="585.10429 228.801 588.29059 222.395 594.18339 231.5733" style="fill: none; stroke: rgb(38, 50, 56); stroke-linecap: round; stroke-linejoin: round; stroke-width: 0.5px; transform-origin: 589.644px 226.984px;" id="el8w2itu6tx83" class="animable"></polyline><polyline points="588.91609 231.5733 592.83359 223.5906 598.96549 231.1574" style="fill: none; stroke: rgb(38, 50, 56); stroke-linecap: round; stroke-linejoin: round; stroke-width: 0.5px; transform-origin: 593.941px 227.582px;" id="elgnqxolrcq2" class="animable"></polyline><polyline points="601.04469 227.9693 598.09389 223.471 594.18339 231.5733" style="fill: none; stroke: rgb(38, 50, 56); stroke-linecap: round; stroke-linejoin: round; stroke-width: 0.5px; transform-origin: 597.614px 227.522px;" id="elakne0av1yib" class="animable"></polyline><line x1="601.94569" y1="224.3654" x2="599.03479" y2="230.8802" style="fill: none; stroke: rgb(38, 50, 56); stroke-linecap: round; stroke-linejoin: round; stroke-width: 0.5px; transform-origin: 600.49px 227.623px;" id="el0rse2a39hbi" class="animable"></line><polyline points="605.49419 210.2482 602.89529 212.7658 602.002 207.1621 599.728 211.6289 597.94129 204.8881 595.09879 211.0604 592.49989 204.9693 590.46959 211.0604 587.70829 205.8627 586.815 212.1161 584.45979 207.6494 584.70339 213.4968 582.83669 210.9137" style="fill: none; stroke: rgb(38, 50, 56); stroke-linecap: round; stroke-linejoin: round; stroke-width: 0.5px; transform-origin: 594.165px 209.192px;" id="el07wy8d7qqeqg" class="animable"></polyline><polyline points="603.54509 215.4459 602.89529 212.7658 598.91589 217.0702" style="fill: none; stroke: rgb(38, 50, 56); stroke-linecap: round; stroke-linejoin: round; stroke-width: 0.5px; transform-origin: 601.23px 214.918px;" id="el2mh97o24pa9" class="animable"></polyline><polyline points="600.05289 216.2581 599.728 211.6289 596.23579 216.8266 595.09879 211.0604 591.93139 216.989 590.46959 211.0604 588.358 216.4205" style="fill: none; stroke: rgb(38, 50, 56); stroke-linecap: round; stroke-linejoin: round; stroke-width: 0.5px; transform-origin: 594.205px 214.025px;" id="elkwp6ip0ukn" class="animable"></polyline><polyline points="588.60169 215.6896 586.815 212.1161 585.59679 215.1211 584.70339 213.4968 583.74759 214.385" style="fill: none; stroke: rgb(38, 50, 56); stroke-linecap: round; stroke-linejoin: round; stroke-width: 0.5px; transform-origin: 586.175px 213.903px;" id="elondh4rr9j6r" class="animable"></polyline></g><path d="M594.49189,204.3634c5.3492,0,9.9307,1.7343,11.8603,4.1987h5.06081l2.20869,3.8391,.14331,.1793v9.2479l-2.31141-3.6002v-4.7195l-4.13859-2.1769c-.01021,.2242-.03891,.4456-.08911,.6639,.0196,.1606,.0239,.3164-.0143,.4536,0,0,.2146,2.4831-1.4842,3.8454s-2.59939,1.347-3.3609,1.2822c-.5349-.0456-1.1499-.3445-1.47249-.52-1.886,.5768-4.06811,.9119-6.40211,.9119-7.0908,0-12.83889-3.0456-12.83889-6.8027s5.74809-6.8027,12.83889-6.8027Zm0,12.5964c5.2798,0,9.7338-1.8225,11.1666-4.32-.0256-.6958-.2228-1.7486-1.01049-3.0239-1.41671-2.2937-3.23821-2.0239-4.18271-2.6985-.7097-.5069-.9241-1.1657-.9869-1.4623-1.5135-.3728-3.1996-.5875-4.9865-.5875-6.437,0-11.6552,2.7069-11.6552,6.046s5.2182,6.0462,11.6552,6.0462Z" style="fill: rgb(38, 50, 56); transform-origin: 597.709px 213.096px;" id="elgqhty078ufg" class="animable"></path></g></g></g><defs>     <filter id="active" height="200%">         <feMorphology in="SourceAlpha" result="DILATED" operator="dilate" radius="2"></feMorphology>                <feFlood flood-color="#32DFEC" flood-opacity="1" result="PINK"></feFlood>        <feComposite in="PINK" in2="DILATED" operator="in" result="OUTLINE"></feComposite>        <feMerge>            <feMergeNode in="OUTLINE"></feMergeNode>            <feMergeNode in="SourceGraphic"></feMergeNode>        </feMerge>    </filter>    <filter id="hover" height="200%">        <feMorphology in="SourceAlpha" result="DILATED" operator="dilate" radius="2"></feMorphology>                <feFlood flood-color="#ff0000" flood-opacity="0.5" result="PINK"></feFlood>        <feComposite in="PINK" in2="DILATED" operator="in" result="OUTLINE"></feComposite>        <feMerge>            <feMergeNode in="OUTLINE"></feMergeNode>            <feMergeNode in="SourceGraphic"></feMergeNode>        </feMerge>            <feColorMatrix type="matrix" values="0   0   0   0   0                0   1   0   0   0                0   0   0   0   0                0   0   0   1   0 "></feColorMatrix>    </filter></defs></svg>